# xmcd
#
# Track frame offsets: 
#        150
#        19332
#        32913
#        46486
#        69337
#        82305
#        94716
#        103528
#        114626
#        126852
#
# Disc length: 1912 seconds
#
# Revision: 3
# Processed by: cddbd v1.5.2PL0 Copyright (c) Steve Scherf et al.
# Submitted via: ExactAudioCopy v0.99pb4
#
DISCID=8707760a
DTITLE=Los Lonely Boys - Christmas Spirit
DYEAR=2008
DGENRE=Rock
TTITLE0=I've Longed For Christmas
TTITLE1=She'll Be My Everything For Christmas
TTITLE2=Run Run Rudolph
TTITLE3=Carol Of The Bells
TTITLE4=Rudolph The Red-Nosed Reindeer
TTITLE5=Santa Claus Is Coming To Town
TTITLE6=Away In A Manger
TTITLE7=Feliz Navidad
TTITLE8=Jingle Bells
TTITLE9=Silent Night
EXTD=
EXTT0=
EXTT1=
EXTT2=
EXTT3=
EXTT4=
EXTT5=
EXTT6=
EXTT7=
EXTT8=
EXTT9=
PLAYORDER=
